<svg width="358" height="352" viewBox="0 0 358 352" fill="none" xmlns="http://www.w3.org/2000/svg">
<path d="M25.2644 97.1123H10.0099C10.0099 97.1123 11.531 93.6399 23.3976 94.7921C23.3976 94.7921 29.3092 88.5703 37.9261 88.5703C38.0917 87.0983 38.7884 85.7197 39.9052 84.654C41.022 83.5884 42.4946 82.897 44.0884 82.6902C49.9741 81.6493 51.115 86.4725 51.115 86.4725C52.7222 85.8336 54.4546 85.504 56.2056 85.504C57.9566 85.504 59.689 85.8336 61.2962 86.4725C67.1301 88.5862 65.946 94.7762 65.946 94.7762C65.946 94.7762 82.7822 94.2676 85.6775 97.1123H77.0347" stroke="#263238" stroke-linecap="round" stroke-linejoin="round"/>
<path d="M27.9178 97.1123H30.4674" stroke="#263238" stroke-linecap="round" stroke-linejoin="round"/>
<path d="M44.5206 97.0725H67.8302" stroke="#263238" stroke-linecap="round" stroke-linejoin="round"/>
<path d="M155.287 175.254H133.014C133.014 175.254 134.319 172.29 144.44 173.275C144.44 173.275 149.487 167.967 156.834 167.967C156.978 166.711 157.574 165.535 158.527 164.625C159.48 163.715 160.737 163.124 162.097 162.945C167.119 162.063 168.095 166.179 168.095 166.179C169.466 165.634 170.944 165.352 172.438 165.352C173.932 165.352 175.41 165.634 176.781 166.179C181.759 167.983 180.757 173.267 180.757 173.267C180.757 173.267 195.121 172.83 197.584 175.254H192.191" stroke="#263238" stroke-linecap="round" stroke-linejoin="round"/>
<path d="M160.55 175.103H163.739" stroke="#263238" stroke-linecap="round" stroke-linejoin="round"/>
<path d="M153.705 37.0718H131.389C131.389 37.0718 132.694 34.108 142.815 35.1012C142.815 35.1012 147.854 29.7853 155.209 29.7853C155.352 28.5294 155.947 27.3535 156.901 26.4449C157.855 25.5363 159.112 24.9472 160.472 24.7713C165.494 23.8814 166.47 27.9974 166.47 27.9974C167.835 27.4574 169.306 27.1789 170.792 27.1789C172.278 27.1789 173.748 27.4574 175.113 27.9974C180.091 29.8012 179.08 35.0853 179.08 35.0853C179.08 35.0853 193.453 34.6483 195.916 37.0718H190.523" stroke="#263238" stroke-linecap="round" stroke-linejoin="round"/>
<path d="M158.96 36.9209H162.158" stroke="#263238" stroke-linecap="round" stroke-linejoin="round"/>
<path d="M83.6897 212.704H28.0647C32.2132 208.627 56.3957 209.35 56.3957 209.35C56.3957 209.35 54.6672 200.467 63.0852 197.431C71.5033 194.396 77.7088 197.431 77.7088 197.431C77.7088 197.431 79.351 190.502 87.8036 191.996C96.2563 193.49 96.6625 200.443 96.6625 200.443C109.048 200.443 117.535 209.39 117.535 209.39C134.578 207.721 136.774 212.712 136.774 212.712H130.56" stroke="#263238" stroke-linecap="round" stroke-linejoin="round"/>
<path d="M125.901 212.704H123.542" stroke="#263238" stroke-linecap="round" stroke-linejoin="round"/>
<path d="M93.3177 212.704H101.442" stroke="#263238" stroke-linecap="round" stroke-linejoin="round"/>
<path d="M274.306 89.945H207.757C207.757 89.945 210.514 83.6914 231.879 85.7812C231.879 85.7812 242.527 74.5614 258.041 74.5614C258.041 74.5614 258.559 65.8207 269.155 63.9693C279.751 62.1179 281.808 70.787 281.808 70.787C281.808 70.787 289.639 66.9729 300.148 70.787C310.658 74.6011 308.532 85.7494 308.532 85.7494C308.532 85.7494 338.859 84.8356 344.062 89.945H328.687" stroke="#263238" stroke-linecap="round" stroke-linejoin="round"/>
<path d="M280.667 89.9449H286.856" stroke="#263238" stroke-linecap="round" stroke-linejoin="round"/>
<path d="M292.906 228.294H345.981C345.981 228.294 343.786 223.312 326.742 224.972C326.742 224.972 318.255 216.025 305.879 216.025C305.879 216.025 305.464 209.072 297.011 207.578C288.558 206.085 286.916 213.014 286.916 213.014C286.916 213.014 280.676 209.97 272.293 213.014C263.909 216.057 265.612 224.933 265.612 224.933C265.612 224.933 241.412 224.202 237.272 228.278H253.33" stroke="#263238" stroke-linecap="round" stroke-linejoin="round"/>
<path d="M257.669 228.294H265.499" stroke="#263238" stroke-linecap="round" stroke-linejoin="round"/>
<path d="M183.877 247.261V208.842H190.765V224.329H197.541V247.492" stroke="#263238" stroke-linecap="round" stroke-linejoin="round"/>
<path d="M210.834 223.963V187.968H224.61V172.362H251.049V177.9H257.669V214.547" stroke="#263238" stroke-linecap="round" stroke-linejoin="round"/>
<path d="M286.856 200.618V164.614H295.723V148.309H299.215V120.283H302.11V133.767L309.223 140.307V156.628H317.356V192.386H324.754V202.239" stroke="#263238" stroke-linecap="round" stroke-linejoin="round"/>
<path d="M261.584 195.373H268.377V156.247H273.84V99.9888H275.905V137.748H280.667V177.105H284.055" stroke="#263238" stroke-linecap="round" stroke-linejoin="round"/>
<path d="M207.757 202.239H202.027V190.606H198.976V202.239H194.706V219.688" stroke="#263238" stroke-linecap="round" stroke-linejoin="round"/>
<path d="M218.439 183.987V156.628H227.73V133.768H230.946V156.628H237.281V168.603" stroke="#263238" stroke-linecap="round" stroke-linejoin="round"/>
<path d="M227.86 187.968H242.648V218.56" stroke="#263238" stroke-linecap="round" stroke-linejoin="round"/>
<path d="M221.534 245.561V227.388H204.697V265.815" stroke="#263238" stroke-linecap="round" stroke-linejoin="round"/>
<path d="M190.765 255.604V250.447H173.549V291.926H168.994" stroke="#263238" stroke-linecap="round" stroke-linejoin="round"/>
<path d="M299.215 176.7H310.848" stroke="#263238" stroke-linecap="round" stroke-linejoin="round"/>
<path d="M299.215 182.342H310.848" stroke="#263238" stroke-linecap="round" stroke-linejoin="round"/>
<path d="M299.215 188.619H309.958" stroke="#263238" stroke-linecap="round" stroke-linejoin="round"/>
<path d="M246.71 175.254H230.946" stroke="#263238" stroke-linecap="round" stroke-linejoin="round"/>
<path d="M216.184 194.587H234.247" stroke="#263238" stroke-linecap="round" stroke-linejoin="round"/>
<path d="M216.184 198.162H234.247" stroke="#263238" stroke-linecap="round" stroke-linejoin="round"/>
<path d="M216.184 202.239H234.247" stroke="#263238" stroke-linecap="round" stroke-linejoin="round"/>
<path d="M272.82 163.748V200.618" stroke="#263238" stroke-linecap="round" stroke-linejoin="round"/>
<path d="M275.905 163.748V200.618" stroke="#263238" stroke-linecap="round" stroke-linejoin="round"/>
<path d="M68.5216 108.555C68.5216 108.555 77.6484 100.847 83.9662 101.769C85.0207 101.92 79.6016 111.407 79.6016 111.407L68.5216 108.555Z" fill="#4F46E5"/>
<mask id="mask0_14_349" style="mask-type:luminance" maskUnits="userSpaceOnUse" x="68" y="101" width="17" height="11">
<path d="M68.5216 108.555C68.5216 108.555 77.6484 100.847 83.9662 101.769C85.0207 101.92 79.6016 111.407 79.6016 111.407L68.5216 108.555Z" fill="white"/>
</mask>
<g mask="url(#mask0_14_349)">
<path opacity="0.5" d="M68.5216 108.555C68.5216 108.555 77.6484 100.847 83.9662 101.769C85.0207 101.92 79.6016 111.407 79.6016 111.407L68.5216 108.555Z" fill="black" fill-opacity="0.7"/>
</g>
<path d="M68.5216 108.555C68.5216 108.555 77.6484 100.847 83.9662 101.769C85.0207 101.92 79.6016 111.407 79.6016 111.407L68.5216 108.555Z" stroke="#263238" stroke-linecap="round" stroke-linejoin="round"/>
<path d="M152.123 142.023C152.123 142.023 152.469 167.276 153.489 171.487C154.42 174.614 155.801 177.612 157.594 180.403C157.594 180.403 154.621 235.731 155.589 238.29C156.557 240.849 160.671 258.362 160.671 258.362L165.459 325.419H163.731C163.731 325.419 157.214 262.128 157.214 260.253C157.214 258.378 152.089 241.882 152.089 241.882C152.089 241.882 151.406 187.006 152.089 183.875C152.772 180.745 148.078 172.473 148.078 172.473C148.078 172.473 148.139 147.093 146.696 144.574C146.73 144.566 149.729 142.31 152.123 142.023Z" fill="#757575" stroke="#263238" stroke-linecap="round" stroke-linejoin="round"/>
<path d="M83.9663 171.487C83.9663 171.487 74.6839 185.83 77.6484 198.504C77.6484 198.504 74.1135 242.033 72.7393 244.861C71.3651 247.69 62.1432 260.197 59.3084 278.41C57.5944 289.431 54.9944 300.32 51.5299 310.989H63.8718C63.8718 310.989 82.2982 257.376 86.0751 254.571C89.852 251.767 96.8008 233.014 101.71 216.279C101.71 216.279 108.33 245.966 110.966 251.631C113.602 257.297 111.398 273.658 115.167 284.115C118.892 294.445 118.624 311.02 118.624 311.02C118.624 311.02 131.458 313.944 131.337 311.02C130.473 290.79 134.924 273.276 129.419 255.271C126.826 246.864 132.012 197.733 122.556 171.527L83.9663 171.487Z" fill="#BFBFBF"/>
<mask id="mask1_14_349" style="mask-type:luminance" maskUnits="userSpaceOnUse" x="51" y="171" width="82" height="142">
<path d="M83.9663 171.487C83.9663 171.487 74.6839 185.83 77.6484 198.504C77.6484 198.504 74.1135 242.033 72.7393 244.861C71.3651 247.69 62.1432 260.197 59.3084 278.41C57.5944 289.431 54.9944 300.32 51.5299 310.989H63.8718C63.8718 310.989 82.2982 257.376 86.0751 254.571C89.852 251.767 96.8008 233.014 101.71 216.279C101.71 216.279 108.33 245.966 110.966 251.631C113.602 257.297 111.398 273.658 115.167 284.115C118.892 294.445 118.624 311.02 118.624 311.02C118.624 311.02 131.458 313.944 131.337 311.02C130.473 290.79 134.924 273.276 129.419 255.271C126.826 246.864 132.012 197.733 122.556 171.527L83.9663 171.487Z" fill="white"/>
</mask>
<g mask="url(#mask1_14_349)">
<path opacity="0.3" d="M101.442 212.704C101.442 213.276 101.537 214.722 101.649 216.518C96.7403 233.205 89.8433 251.719 86.0924 254.532C82.3414 257.345 63.889 310.949 63.889 310.949H51.5644C55.029 300.281 57.6289 289.391 59.3429 278.37C62.1518 260.158 71.4428 247.682 72.7738 244.845C74.1048 242.009 77.6484 198.56 77.6484 198.56C76.9366 195.265 76.8664 191.881 77.4409 188.564C78.0978 192.878 80.898 198.234 90.4051 199.616C89.8241 197.955 89.6592 196.194 89.9226 194.466C90.186 192.738 90.871 191.087 91.9263 189.636C91.9263 189.636 90.0853 198.56 97.8811 202.739C98.2268 202.922 98.1145 204.185 98.1145 204.185C98.1145 204.185 101.407 210.63 101.442 212.704Z" fill="black" fill-opacity="0.7"/>
<path opacity="0.3" d="M123.784 175.119C120.629 176.875 113.792 178.925 99.238 178.385C96.8424 180.194 94.8346 182.398 93.3177 184.885L91.9262 183.867C91.9262 183.867 85.2626 187.356 78.02 185.647C79.2572 180.688 81.2596 175.917 83.9662 171.479H122.643C123.032 172.648 123.421 173.863 123.784 175.119Z" fill="black" fill-opacity="0.7"/>
</g>
<path d="M83.9663 171.487C83.9663 171.487 74.6839 185.83 77.6484 198.504C77.6484 198.504 74.1135 242.033 72.7393 244.861C71.3651 247.69 62.1432 260.197 59.3084 278.41C57.5944 289.431 54.9944 300.32 51.5299 310.989H63.8718C63.8718 310.989 82.2982 257.376 86.0751 254.571C89.852 251.767 96.8008 233.014 101.71 216.279C101.71 216.279 108.33 245.966 110.966 251.631C113.602 257.297 111.398 273.658 115.167 284.115C118.892 294.445 118.624 311.02 118.624 311.02C118.624 311.02 131.458 313.944 131.337 311.02C130.473 290.79 134.924 273.276 129.419 255.271C126.826 246.864 132.012 197.733 122.556 171.527L83.9663 171.487Z" stroke="#263238" stroke-linecap="round" stroke-linejoin="round"/>
<path d="M94.3376 182.707C94.3376 182.707 87.9419 193.935 94.8994 200.61C94.8994 200.61 103.689 208.198 113.17 206.379" stroke="#263238" stroke-linecap="round" stroke-linejoin="round"/>
<path d="M101.727 216.24C101.727 216.24 100.863 210.121 99.2121 207.499C97.5613 204.877 98.1145 204.162 98.1145 204.162C98.1145 204.162 90.6298 206.283 85.7899 204.662" stroke="#263238" stroke-linecap="round" stroke-linejoin="round"/>
<path d="M77.6484 198.56C79.3431 200.028 81.3544 201.152 83.552 201.86C85.7496 202.568 88.0844 202.843 90.4051 202.668" stroke="#263238" stroke-linecap="round" stroke-linejoin="round"/>
<path d="M94.3376 104.947C95.029 104.685 129.522 102.317 131.242 99.0511C129.549 96.0958 128.277 92.9525 127.457 89.6986C125.303 82.1895 121.838 75.0513 117.198 68.5621L125.841 67.108C131.026 80.505 143.264 92.3923 143.048 104.82C143.048 104.82 124.38 116.493 105.374 118.392C99.9036 118.924 94.3376 104.947 94.3376 104.947Z" fill="white" stroke="#263238" stroke-linecap="round" stroke-linejoin="round"/>
<path d="M105.833 96.119C104.663 95.9695 103.472 96.179 102.445 96.715C98.9356 98.6697 99.5751 104.502 99.5751 104.502L83.9662 101.769C87.3715 97.2156 86.4986 86.7665 86.4986 86.7665C101.122 74.1641 104.648 85.7097 105.513 92.3288C105.781 94.1961 105.824 95.6661 105.833 96.119Z" fill="white" stroke="#263238" stroke-linecap="round" stroke-linejoin="round"/>
<path d="M105.832 96.1191C104.663 95.9696 103.472 96.1791 102.445 96.715C101.194 94.7934 100.407 92.6472 100.137 90.4218L105.539 92.3368C105.781 94.1961 105.824 95.6662 105.832 96.1191Z" fill="#263238"/>
<path d="M78.3657 65.2565C78.3657 65.2565 77.0347 58.1051 90.1026 57.0085C103.171 55.912 115.167 59.2255 115.167 67.982C115.167 76.7386 107.284 94.8238 91.5978 86.7665C75.9112 78.7092 78.3657 65.2565 78.3657 65.2565Z" fill="#263238"/>
<path d="M85.9541 87.7598C84.6058 86.1706 81.045 80.4653 80.4746 78.2881C76.9483 64.8989 84.917 63.9295 90.8459 61.2199C102.125 56.0788 112.384 66.504 111.502 75.7851C110.621 85.0661 115.383 83.9695 115.167 85.2488C114.985 86.3295 111.96 87.426 111.96 87.426C111.912 88.2212 111.938 89.0188 112.038 89.8099L111.295 90.4376C110.906 92.2016 110.024 96.6514 109.393 96.7944C108.131 97.1441 101.053 94.8715 99.8863 92.4638" fill="white"/>
<path d="M85.9541 87.7598C84.6058 86.1706 81.045 80.4653 80.4746 78.2881C76.9483 64.8989 84.917 63.9295 90.8459 61.2199C102.125 56.0788 112.384 66.504 111.502 75.7851C110.621 85.0661 115.383 83.9695 115.167 85.2488C114.985 86.3295 111.96 87.426 111.96 87.426C111.912 88.2212 111.938 89.0188 112.038 89.8099L111.295 90.4376C110.906 92.2016 110.024 96.6514 109.393 96.7944C108.131 97.1441 101.053 94.8715 99.8863 92.4638" stroke="#263238" stroke-linecap="round" stroke-linejoin="round"/>
<path d="M110.413 79.7025C110.309 80.3779 109.895 80.8785 109.488 80.8308C109.082 80.7832 108.823 80.1872 108.918 79.5118C109.013 78.8364 109.437 78.3358 109.851 78.3914C110.266 78.447 110.543 79.0271 110.413 79.7025Z" fill="#263238"/>
<path d="M110.966 74.4263C110.966 74.4263 109.082 74.1323 107.189 76.0155" stroke="#263238" stroke-linecap="round" stroke-linejoin="round"/>
<path d="M107.086 61.2676C101.9 57.6204 72.964 53.8698 77.7694 74.8951C77.1298 77.5014 79.0744 81.8956 85.5479 89.0232C85.5479 89.0232 88.6852 86.7665 92.0473 88.7054C92.0473 88.7054 94.0783 82.9206 97.5787 81.6095C98.3352 81.305 99.0062 80.8457 99.5406 80.2666C108.806 78.1371 109.981 70.0559 109.86 67.2271C110.413 66.4564 111.407 64.2712 107.086 61.2676Z" fill="#263238"/>
<path d="M83.9662 61.8874C83.9662 61.8874 76.4297 54.1003 67.1906 58.4468C57.9514 62.7933 60.4233 74.9348 65.5398 81.4903C70.6563 88.0458 64.3817 93.33 66.3609 96.8978C68.3401 100.466 72.5145 98.9955 72.5145 98.9955C71.8274 98.6126 71.2464 98.0881 70.8174 97.4635C70.3884 96.8388 70.1232 96.131 70.0427 95.396C69.7056 92.8214 75.3235 91.6057 75.3235 84.3191C75.3235 77.0326 73.5085 70.5089 80.1116 73.5443C86.7146 76.5797 83.9662 61.8874 83.9662 61.8874Z" fill="#263238"/>
<path d="M111.303 90.4138C111.303 90.4138 108.417 90.5488 107.189 89.5" stroke="#263238" stroke-linecap="round" stroke-linejoin="round"/>
<g opacity="0.2">
<path d="M83.9662 61.8874C83.9662 61.8874 88.4605 67.1636 83.0587 71.5339" stroke="white" stroke-linecap="round" stroke-linejoin="round"/>
<path d="M107.086 61.2676C107.086 61.2676 114 68.2045 100.172 75.9758" stroke="white" stroke-linecap="round" stroke-linejoin="round"/>
<path d="M104.493 60.0518C104.493 60.0518 107.189 62.4357 101.036 67.1159C94.8821 71.7961 90.2841 73.0119 85.7466 72.7973" stroke="white" stroke-linecap="round" stroke-linejoin="round"/>
<path d="M81.9006 65.9717C81.9006 65.9717 77.9163 60.0121 71.5984 64.0964C65.2805 68.1807 66.6461 73.8065 70.06 80.2666C73.4739 86.7268 71.1576 90.97 71.1576 90.97" stroke="white" stroke-linecap="round" stroke-linejoin="round"/>
<path d="M69.9217 59.0665C69.9217 59.0665 62.1432 59.2731 62.7396 68.6018C63.3359 77.9305 66.9572 77.8749 67.7524 82.3723" stroke="white" stroke-linecap="round" stroke-linejoin="round"/>
<path d="M91.0101 80.2666C91.0101 80.2666 83.2316 81.8559 80.3103 75.9758" stroke="white" stroke-linecap="round" stroke-linejoin="round"/>
</g>
<path d="M98.5121 81.1566C98.5121 81.1566 97.2329 76.8658 93.845 78.3119C90.457 79.7581 93.4215 83.8742 95.0982 85.8289C95.3205 86.1462 95.638 86.3975 96.0122 86.5525C96.3865 86.7076 96.8016 86.7597 97.2074 86.7025C97.6132 86.6454 97.9923 86.4815 98.299 86.2306C98.6056 85.9797 98.8267 85.6525 98.9356 85.2886" fill="white"/>
<path d="M98.5121 81.1566C98.5121 81.1566 97.2329 76.8658 93.845 78.3119C90.457 79.7581 93.4215 83.8742 95.0982 85.8289C95.3205 86.1462 95.638 86.3975 96.0122 86.5525C96.3865 86.7076 96.8016 86.7597 97.2074 86.7025C97.6132 86.6454 97.9923 86.4815 98.299 86.2306C98.6056 85.9797 98.8267 85.6525 98.9356 85.2886" stroke="#263238" stroke-linecap="round" stroke-linejoin="round"/>
<path d="M82.8859 99.5438L82.5229 101.967C69.1871 113.434 77.9941 140.379 86.3689 157.59L81.0191 173.132C81.0191 173.132 103.836 180.117 124.631 174.65L122.643 156.398L120.335 142.143C120.335 142.143 122.237 137.288 122.608 127.84C122.98 118.392 103.629 94.2358 82.8859 99.5438Z" fill="#263238"/>
<path d="M120.914 71.0015C120.914 71.0015 117.457 72.702 115.979 72.2411C115.979 72.2411 108.538 72.6305 108.33 69.7381C109.606 69.5347 110.826 69.1014 111.919 68.4632C113.012 67.825 113.957 66.9945 114.7 66.0193C115.945 64.4301 126.679 64.4301 126.048 67.7277C125.943 68.259 125.706 68.7607 125.355 69.1935C125.004 69.6264 124.549 69.9787 124.026 70.2228" fill="white"/>
<path d="M120.914 71.0015C120.914 71.0015 117.457 72.702 115.979 72.2411C115.979 72.2411 108.538 72.6305 108.33 69.7381C109.606 69.5347 110.826 69.1014 111.919 68.4632C113.012 67.825 113.957 66.9945 114.7 66.0193C115.945 64.4301 126.679 64.4301 126.048 67.7277C125.943 68.259 125.706 68.7607 125.355 69.1935C125.004 69.6264 124.549 69.9787 124.026 70.2228" stroke="#263238" stroke-linecap="round" stroke-linejoin="round"/>
<path d="M114.691 66.0193C116.221 65.7969 115.469 66.512 116.558 66.4405C117.647 66.369 117.742 65.7253 118.537 66.6789C119.333 67.6324 120.214 66.6789 121.035 66.9967" fill="white"/>
<path d="M114.691 66.0193C116.221 65.7969 115.469 66.512 116.558 66.4405C117.647 66.369 117.742 65.7253 118.537 66.6789C119.333 67.6324 120.214 66.6789 121.035 66.9967" stroke="#263238" stroke-linecap="round" stroke-linejoin="round"/>
<path d="M115.971 72.2173C116.074 71.4227 119.108 69.9209 119.903 68.9356Z" fill="white"/>
<path d="M115.971 72.2173C116.074 71.4227 119.108 69.9209 119.903 68.9356" stroke="#263238" stroke-linecap="round" stroke-linejoin="round"/>
<path d="M113.395 72.2173C112.453 71.1684 114.631 70.6916 116.714 68.8163Z" fill="white"/>
<path d="M113.395 72.2173C112.453 71.1684 114.631 70.6916 116.714 68.8163" stroke="#263238" stroke-linecap="round" stroke-linejoin="round"/>
<path d="M110.88 71.812C109.704 70.7393 110.197 70.3579 112.038 69.5712C113.052 69.1778 113.943 68.5578 114.631 67.7675" fill="white"/>
<path d="M110.88 71.812C109.704 70.7393 110.197 70.3579 112.038 69.5712C113.052 69.1778 113.943 68.5578 114.631 67.7675" stroke="#263238" stroke-linecap="round" stroke-linejoin="round"/>
<path d="M113.922 304.481C113.922 304.481 121.64 302.176 127.802 304.258L129.721 310.981L133.878 304.481C133.878 304.481 132.487 312.657 133.878 315.16C135.27 317.663 143.558 318.847 144.915 320.476C146.272 322.105 146.713 325.419 146.713 325.419H114.501L117.008 315.16L113.922 304.481Z" fill="#4F46E5" stroke="#263238" stroke-linecap="round" stroke-linejoin="round"/>
<path d="M49.6717 304.481C49.6717 304.481 55.7216 302.176 61.8839 304.258L61.2962 310.981L68.8068 304.481C68.8068 304.481 64.0792 312.657 65.4707 315.16C66.8622 317.663 75.1506 318.847 76.5075 320.476C77.8644 322.105 78.3052 325.419 78.3052 325.419H46.0763L49.4124 315.16L49.6717 304.481Z" fill="#4F46E5"/>
<mask id="mask2_14_349" style="mask-type:luminance" maskUnits="userSpaceOnUse" x="46" y="303" width="33" height="23">
<path d="M49.6717 304.481C49.6717 304.481 55.7216 302.176 61.8839 304.258L61.2962 310.981L68.8068 304.481C68.8068 304.481 64.0792 312.657 65.4707 315.16C66.8622 317.663 75.1506 318.847 76.5075 320.476C77.8644 322.105 78.3052 325.419 78.3052 325.419H46.0763L49.4124 315.16L49.6717 304.481Z" fill="white"/>
</mask>
<g mask="url(#mask2_14_349)">
<path opacity="0.3" d="M49.6717 304.481C49.6717 304.481 55.7216 302.176 61.8839 304.258L61.2962 310.981L68.8068 304.481C68.8068 304.481 64.0792 312.657 65.4707 315.16C66.8622 317.663 75.1506 318.847 76.5075 320.476C77.8644 322.105 78.3052 325.419 78.3052 325.419H46.0763L49.4124 315.16L49.6717 304.481Z" fill="black" fill-opacity="0.7"/>
</g>
<path d="M49.6717 304.481C49.6717 304.481 55.7216 302.176 61.8839 304.258L61.2962 310.981L68.8068 304.481C68.8068 304.481 64.0792 312.657 65.4707 315.16C66.8622 317.663 75.1506 318.847 76.5075 320.476C77.8644 322.105 78.3052 325.419 78.3052 325.419H46.0763L49.4124 315.16L49.6717 304.481Z" stroke="#263238" stroke-linecap="round" stroke-linejoin="round"/>
<path d="M114.51 151.988C114.51 151.988 119.168 146.259 119.998 143.056L120.957 145.838C120.957 145.838 118.494 152.194 114.51 155.492V151.988Z" fill="#BFBFBF" stroke="#263238" stroke-linecap="round" stroke-linejoin="round"/>
<path d="M96.0316 154.729C96.0316 154.729 102.548 156.986 107.163 155.571C110.203 154.526 112.945 152.861 115.184 150.701L116.688 153.211C116.688 153.211 106.273 169.898 96.0316 167.371" fill="#4F46E5"/>
<path d="M96.0316 154.729C96.0316 154.729 102.548 156.986 107.163 155.571C110.203 154.526 112.945 152.861 115.184 150.701L116.688 153.211C116.688 153.211 106.273 169.898 96.0316 167.371" stroke="#263238" stroke-linecap="round" stroke-linejoin="round"/>
<path d="M96.7144 176.7C93.3264 184.884 60.5011 183.001 54.1141 178.401C52.7053 177.383 51.4002 175.421 50.2594 172.942C47.9908 167.642 46.466 162.099 45.7219 156.446C45.5231 154.976 45.3848 153.585 45.3243 152.337C45.1774 149.54 45.3935 147.435 46.0417 146.672C48.6345 143.644 51.5299 140.712 51.5299 140.712C51.5299 140.712 46.4825 115.921 51.5299 113.553C55.6949 111.267 60.2552 109.655 65.0126 108.785C72.3071 107.601 84.5799 104.264 90.0767 111.169C90.3577 111.532 90.5981 111.921 90.7941 112.329C95.9711 122.428 99.9554 168.865 96.7144 176.7Z" fill="#4F46E5"/>
<mask id="mask3_14_349" style="mask-type:luminance" maskUnits="userSpaceOnUse" x="45" y="106" width="53" height="77">
<path d="M96.7144 176.7C93.3264 184.884 60.5011 183.001 54.1141 178.401C52.7053 177.383 51.4002 175.421 50.2594 172.942C47.9908 167.642 46.466 162.099 45.7219 156.446C45.5231 154.976 45.3848 153.585 45.3243 152.337C45.1774 149.54 45.3935 147.435 46.0417 146.672C48.6345 143.644 51.5299 140.712 51.5299 140.712C51.5299 140.712 46.4825 115.921 51.5299 113.553C55.6949 111.267 60.2552 109.655 65.0126 108.785C72.3071 107.601 84.5799 104.264 90.0767 111.169C90.3577 111.532 90.5981 111.921 90.7941 112.329C95.9711 122.428 99.9554 168.865 96.7144 176.7Z" fill="white"/>
</mask>
<g mask="url(#mask3_14_349)">
<path opacity="0.3" d="M96.7144 176.7C93.3264 184.885 60.5011 183.001 54.114 178.401C52.7053 177.383 51.4002 175.421 50.2594 172.942C48.4617 167.292 46.8023 160.768 45.7651 156.446C45.1169 153.72 44.7021 151.877 44.6675 151.678C44.8335 151.951 45.075 152.178 45.3675 152.337C46.9146 153.355 51.7891 155.254 66.9745 156.175C66.9745 156.175 55.929 158.996 47.269 155.508C47.269 155.508 50.2334 171.94 53.4226 175.182C56.6118 178.424 71.0885 181.158 74.511 179.378C77.9336 177.598 75.6087 160.895 76.3174 159.187C77.0261 157.479 79.7745 156.056 79.9214 155.508C80.0684 154.96 80.6647 146.942 80.6647 146.942C80.6647 146.942 59.3516 142.921 53.4226 143.072C47.4937 143.223 55.929 139.346 61.858 139.973C67.7869 140.601 79.6362 142.921 79.9214 143.072C80.2066 143.223 77.4582 119.107 74.39 115.499C71.3218 111.892 78.262 112.051 79.9214 117.788C81.5117 123.35 85.496 143.533 85.7812 144.924C85.7121 143.819 84.917 131.972 84.1045 127.554C83.2835 122.921 83.3612 116.819 84.2342 116.191C85.1071 115.563 89.5149 113.958 89.9298 113.084C90.1502 112.774 90.4461 112.516 90.794 112.329C95.9711 122.428 99.9554 168.865 96.7144 176.7Z" fill="black" fill-opacity="0.7"/>
</g>
<path d="M96.7144 176.7C93.3264 184.884 60.5011 183.001 54.1141 178.401C52.7053 177.383 51.4002 175.421 50.2594 172.942C47.9908 167.642 46.466 162.099 45.7219 156.446C45.5231 154.976 45.3848 153.585 45.3243 152.337C45.1774 149.54 45.3935 147.435 46.0417 146.672C48.6345 143.644 51.5299 140.712 51.5299 140.712C51.5299 140.712 46.4825 115.921 51.5299 113.553C55.6949 111.267 60.2552 109.655 65.0126 108.785C72.3071 107.601 84.5799 104.264 90.0767 111.169C90.3577 111.532 90.5981 111.921 90.7941 112.329C95.9711 122.428 99.9554 168.865 96.7144 176.7Z" stroke="#263238" stroke-linecap="round" stroke-linejoin="round"/>
<path d="M79.6017 108.42C77.3048 106.679 74.5401 105.54 71.5984 105.122C66.819 104.494 62.7137 110.462 62.7137 110.462H64.9349C64.9349 110.462 68.0117 104.963 74.1653 109.834" fill="#4F46E5"/>
<path d="M79.6017 108.42C77.3048 106.679 74.5401 105.54 71.5984 105.122C66.819 104.494 62.7137 110.462 62.7137 110.462H64.9349C64.9349 110.462 68.0117 104.963 74.1653 109.834" stroke="#263238" stroke-linecap="round" stroke-linejoin="round"/>
<path d="M56.8971 112.663C56.8971 112.663 69.5501 111.717 73.6554 114.705C77.7608 117.693 79.9215 142.023 79.9215 142.023C79.9215 142.023 60.9765 137.184 55.5315 139.695" stroke="#263238" stroke-linecap="round" stroke-linejoin="round"/>
<path d="M52.9646 134.197C52.9646 134.197 49.5074 123.072 51.5644 120.212C53.6214 117.351 66.6461 117.828 69.0402 120.212C71.4342 122.595 71.633 135.929 71.633 135.929C71.633 135.929 60.5184 133.64 55.566 134.34" stroke="#263238" stroke-linecap="round" stroke-linejoin="round"/>
<path d="M46.8109 153.212C47.4937 154.006 71.4947 157.931 75.6519 155.413" stroke="#263238" stroke-linecap="round" stroke-linejoin="round"/>
<path d="M47.8394 148.976C49.5679 147.721 66.8535 150.859 70.4057 151.01C73.9579 151.161 80.2931 147.554 80.6647 146.91C80.6647 146.91 85.3923 170.645 83.9662 175.206C82.5402 179.767 78.6077 180.546 78.6077 180.546" stroke="#263238" stroke-linecap="round" stroke-linejoin="round"/>
<path d="M52.2818 173.649C52.2818 173.649 53.3103 178.989 74.511 180.562" stroke="#263238" stroke-linecap="round" stroke-linejoin="round"/>
<path d="M86.6455 153.847C87.5098 153.529 93.6375 152.933 95.876 151.646C96.0632 154.303 96.0545 156.968 95.8501 159.624C95.8501 159.624 89.1865 162.008 87.9852 161.515C86.7838 161.022 86.3257 157.582 86.3257 157.582" stroke="#263238" stroke-linecap="round" stroke-linejoin="round"/>
<path d="M94.8993 159.99C94.8993 159.99 95.4611 170.105 94.8993 171.487C94.3376 172.87 88.3568 174.904 87.674 174.745C86.9912 174.586 85.7899 164.845 85.7899 164.845" stroke="#263238" stroke-linecap="round" stroke-linejoin="round"/>
<path d="M72.7393 111.407C72.7393 111.407 78.9534 111.407 81.1746 115.182C83.3958 118.956 85.8936 140.736 86.3603 142.023" stroke="#263238" stroke-linecap="round" stroke-linejoin="round"/>
<path d="M83.9662 108.769C83.9662 108.769 97.7947 101.793 105.029 103.946C112.263 106.099 115.184 112.822 115.184 112.822C115.184 112.822 112.712 106.544 105.833 106.95C98.9528 107.355 89.0396 113.64 89.0396 113.64" fill="#4F46E5"/>
<path d="M83.9662 108.769C83.9662 108.769 97.7947 101.793 105.029 103.946C112.263 106.099 115.184 112.822 115.184 112.822C115.184 112.822 112.712 106.544 105.833 106.95C98.9528 107.355 89.0396 113.64 89.0396 113.64" stroke="#263238" stroke-linecap="round" stroke-linejoin="round"/>
<path d="M105.833 106.918C105.833 106.918 113.611 106.322 115.996 109.675C118.382 113.028 115.996 121.745 115.996 121.745C115.996 121.745 118.045 123.97 114.51 125.575C110.975 127.18 101.477 128.054 99.2208 124.892C96.965 121.729 98.175 108.237 105.833 106.918Z" fill="#263238"/>
<path d="M115.443 122.373C115.443 122.373 107.215 149.715 109.912 152.385C113.385 152.563 116.826 153.096 120.171 153.974C135.616 157.59 144.371 154.968 144.371 154.968L142.729 162.874C127.258 162.5 112.297 165.083 99.7825 160.395C99.7825 160.395 94.6919 140.18 99.6443 123.199C99.6443 123.199 101.079 121.499 105.331 120.99C108.776 120.5 112.302 120.982 115.443 122.373Z" fill="white" stroke="#263238" stroke-linecap="round" stroke-linejoin="round"/>
<path d="M141.977 162.898C144.915 164.67 149.167 161.889 153.1 162.23C157.032 162.572 155.131 152.218 155.131 152.218C155.131 152.218 150.213 150.057 148.77 149.572C147.327 149.088 145.174 152.083 140.628 155.929" fill="white"/>
<path d="M141.977 162.898C144.915 164.67 149.167 161.889 153.1 162.23C157.032 162.572 155.131 152.218 155.131 152.218C155.131 152.218 150.213 150.057 148.77 149.572C147.327 149.088 145.174 152.083 140.628 155.929" stroke="#263238" stroke-linecap="round" stroke-linejoin="round"/>
<path d="M84.5107 101.864C88.8565 101.514 93.2353 101.817 97.4749 102.762" stroke="white" stroke-linecap="round" stroke-linejoin="round"/>
<path d="M98.9355 124.391C98.9355 124.391 97.6046 122.603 98.9355 121.745C98.9355 121.745 95.0636 119.004 95.6167 116.183" stroke="white" stroke-linecap="round" stroke-linejoin="round"/>
<path d="M117.059 118.257L116.688 121.745C116.688 121.745 118.598 122.865 115.184 124.391" stroke="white" stroke-linecap="round" stroke-linejoin="round"/>
<path d="M118.676 143.056C118.676 143.056 114.579 145.909 112.237 145.44" stroke="white" stroke-linecap="round" stroke-linejoin="round"/>
<path d="M101.744 170.558C101.744 170.558 111.545 175.794 121.917 173.649" stroke="white" stroke-linecap="round" stroke-linejoin="round"/>
<path d="M149.954 153.212C151.801 153.439 153.627 153.795 155.416 154.276" stroke="#263238" stroke-linecap="round" stroke-linejoin="round"/>
<path d="M149.954 156.509C149.954 156.509 154.388 156.509 155.589 156.628" stroke="#263238" stroke-linecap="round" stroke-linejoin="round"/>
<path d="M149.954 159.171C149.954 159.171 155.529 159.02 155.416 159.537" stroke="#263238" stroke-linecap="round" stroke-linejoin="round"/>
<path d="M48.8679 321.867C48.8679 321.867 57.5625 321.072 62.1864 322.804" stroke="#263238" stroke-linecap="round" stroke-linejoin="round"/>
<path d="M50.9076 314.405C50.9076 314.405 55.6957 313.388 58.2626 314.405" stroke="#263238" stroke-linecap="round" stroke-linejoin="round"/>
<path d="M65.4707 315.16C65.4707 315.16 66.6461 317.147 66.335 318.561" stroke="#263238" stroke-linecap="round" stroke-linejoin="round"/>
<path d="M76.5075 320.476C74.4211 320.666 72.3193 320.666 70.2328 320.476" stroke="#263238" stroke-linecap="round" stroke-linejoin="round"/>
<path d="M133.878 315.16C133.878 315.16 137.059 318.561 137.059 319.507" stroke="#263238" stroke-linecap="round" stroke-linejoin="round"/>
<path d="M144.932 320.476C143.413 320.735 141.862 320.788 140.326 320.635" stroke="#263238" stroke-linecap="round" stroke-linejoin="round"/>
<path d="M116.731 322.804C116.731 322.804 126.472 321.39 132.288 322.804" stroke="#263238" stroke-linecap="round" stroke-linejoin="round"/>
<path d="M119.125 315.16C119.125 315.16 123.913 315.295 125.97 314.183" stroke="#263238" stroke-linecap="round" stroke-linejoin="round"/>
<path d="M97.8811 211.528C97.8811 211.528 92.6177 240.658 85.7812 247.571C85.7812 247.571 76.8965 270.162 73.3616 276.177C69.8267 282.192 65.462 301.477 65.462 301.477" stroke="#263238" stroke-linecap="round" stroke-linejoin="round"/>
<path d="M72.7393 244.885C72.7393 244.885 75.9889 240.531 79.6535 244.885" stroke="#263238" stroke-linecap="round" stroke-linejoin="round"/>
<path d="M114.138 249.414C114.138 249.414 115.711 241.739 122.548 248.024" stroke="#263238" stroke-linecap="round" stroke-linejoin="round"/>
<path d="M122.548 177.9C122.548 177.9 126.592 193.887 125.91 202.708C125.91 202.708 128.191 235.708 127.509 244.885" stroke="#263238" stroke-linecap="round" stroke-linejoin="round"/>
<path d="M131.286 99.0511C131.286 99.0511 135.529 101.014 138.036 99.2657" stroke="#263238" stroke-linecap="round" stroke-linejoin="round"/>
<path d="M278.757 302.2C278.757 302.2 276.942 284.639 280.633 268.382C284.323 252.124 277.176 250.201 274.22 254.659C271.264 259.117 270.305 273.88 270.305 273.88C270.305 273.88 268.818 258.918 266.26 251.29C262.509 240.11 258.481 231.591 253.132 234.11C246.917 237.019 261.36 257.154 264.203 280.722C264.203 280.722 252.57 269.709 246.995 259.442C241.421 249.176 234.653 255.414 239.623 264.607C244.593 273.801 256.433 277.162 262.958 286.912C262.958 286.912 246.667 277.981 243.374 283.392C241.516 286.443 248.145 287.087 251.101 287.746C265.465 290.925 272.12 304.648 272.12 304.648L278.757 302.2Z" fill="#4F46E5" stroke="#263238" stroke-linecap="round" stroke-linejoin="round"/>
<path opacity="0.2" d="M278.757 302.2C278.757 302.2 276.942 284.639 280.633 268.382C284.323 252.124 277.176 250.201 274.22 254.659C271.264 259.117 270.305 273.88 270.305 273.88C270.305 273.88 268.818 258.918 266.26 251.29C262.509 240.11 258.481 231.591 253.132 234.11C246.917 237.019 261.36 257.154 264.203 280.722C264.203 280.722 252.57 269.709 246.995 259.442C241.421 249.176 234.653 255.414 239.623 264.607C244.593 273.801 256.433 277.162 262.958 286.912C262.958 286.912 246.667 277.981 243.374 283.392C241.516 286.443 248.145 287.087 251.101 287.746C265.465 290.925 272.12 304.648 272.12 304.648L278.757 302.2Z" fill="black" fill-opacity="0.7" stroke="#263238" stroke-miterlimit="10"/>
<path d="M278.083 280.913C278.083 280.913 279.043 264.917 272.699 251.663C266.355 238.409 272.016 237.36 275.413 240.69C278.809 244.019 281.402 261.167 281.402 261.167C281.402 261.167 284.384 245.799 283.027 235.167C281.67 224.535 281.765 218.56 286.527 218.56C292.577 218.56 291.186 244.575 286.268 260.165C286.268 260.165 294.047 248.834 296.76 239.148C299.474 229.462 306.492 233.657 304.055 242.327C301.618 250.996 292.197 255.835 288.55 265.235C288.55 265.235 300.65 254.905 304.565 258.974C306.751 261.27 301.22 262.947 298.826 263.972C287.201 269.089 284.22 281.89 284.22 281.89L278.083 280.913Z" fill="#4F46E5" stroke="#263238" stroke-linecap="round" stroke-linejoin="round"/>
<path d="M275.905 251.004C281.298 262.184 281.61 278.497 281.61 278.497C281.61 278.497 288.697 246.085 286.916 232.41" stroke="#263238" stroke-linecap="round" stroke-linejoin="round"/>
<path d="M299.215 244.575C299.215 244.575 291.298 259.927 284.055 265.815" stroke="#263238" stroke-linecap="round" stroke-linejoin="round"/>
<path d="M299.215 261.119C299.215 261.119 285.836 269.065 282.552 273.88" stroke="#263238" stroke-linecap="round" stroke-linejoin="round"/>
<path d="M266.865 300.5C266.865 300.5 256.649 287.556 254.212 273.253C251.775 258.95 246.39 260.897 245.474 265.37C244.558 269.844 252.466 285.569 252.466 285.569C252.466 285.569 240.919 274.047 235.863 264.464C230.807 254.881 227.169 249.859 223.158 252.227C218.042 255.247 234.524 276.431 247.825 287.103C247.825 287.103 234.645 281.421 226.65 274.635C218.656 267.849 215.233 274.85 222.329 280.937C229.424 287.023 240.245 286.403 248.845 292.506C248.845 292.506 232.562 289.844 231.689 295.192C231.196 298.211 236.814 296.852 239.467 296.551C252.25 295.081 262.276 304.369 262.276 304.369L266.865 300.5Z" fill="#4F46E5" stroke="#263238" stroke-linecap="round" stroke-linejoin="round"/>
<path d="M251.109 274.246C253.149 286.34 262.474 300.214 262.474 300.214C262.474 300.214 237.462 276.471 230.946 264.091" stroke="#263238" stroke-linecap="round" stroke-linejoin="round"/>
<path d="M227.73 280.404C227.73 280.404 243.408 289.391 252.967 290.734" stroke="#263238" stroke-linecap="round" stroke-linejoin="round"/>
<path d="M237.454 294.342C237.454 294.342 253.356 294.342 258.965 296.805" stroke="#263238" stroke-linecap="round" stroke-linejoin="round"/>
<path d="M304.072 244.845C304.072 244.845 317.088 245.791 317.624 254.619C317.624 254.619 304.452 260.189 304.072 244.845Z" fill="#4F46E5" stroke="#263238" stroke-linecap="round" stroke-linejoin="round"/>
<path d="M329.81 247.031C329.81 247.031 337.079 237.996 348.825 242.629C348.825 242.636 341.651 253.562 329.81 247.031Z" fill="#4F46E5" stroke="#263238" stroke-linecap="round" stroke-linejoin="round"/>
<path d="M347.831 218.512C347.831 218.512 349.948 235.906 332.714 231.139C332.714 231.139 338.177 218.329 347.831 218.512Z" fill="#4F46E5" stroke="#263238" stroke-linecap="round" stroke-linejoin="round"/>
<path d="M326.699 208.842C326.699 208.842 340.311 215.588 330.303 225.823C330.303 225.823 320.761 218.512 326.699 208.842Z" fill="#4F46E5" stroke="#263238" stroke-linecap="round" stroke-linejoin="round"/>
<path d="M309.958 224.369C309.958 224.369 324.754 222.994 324.754 235.588C324.754 235.588 309.958 236.129 309.958 224.369Z" fill="#4F46E5" stroke="#263238" stroke-linecap="round" stroke-linejoin="round"/>
<path d="M323.907 272.593C323.907 272.593 317.166 259.577 323.639 246.316C330.113 233.054 332.282 221.897 328.92 214.031" stroke="#263238" stroke-linecap="round" stroke-linejoin="round"/>
<path d="M314.815 227.753C314.815 227.753 323.683 230.996 326.699 239.394" stroke="#263238" stroke-linecap="round" stroke-linejoin="round"/>
<path d="M343.155 225.465C343.155 225.465 338.03 231.885 329.326 231.194" stroke="#263238" stroke-linecap="round" stroke-linejoin="round"/>
<path d="M343.155 244.48C343.155 244.48 328.955 248.246 323.276 247.015" stroke="#263238" stroke-linecap="round" stroke-linejoin="round"/>
<path d="M308.316 248.819C308.316 248.819 314.66 255.223 321.047 255.12" stroke="#263238" stroke-linecap="round" stroke-linejoin="round"/>
<path d="M221.3 290.178C221.3 290.178 209.995 292.721 210.929 300.563C210.886 300.563 223.357 303.742 221.3 290.178Z" fill="#4F46E5" stroke="#263238" stroke-linecap="round" stroke-linejoin="round"/>
<path d="M198.976 295.502C198.976 295.502 191.197 288.501 181.552 294.127C181.552 294.111 189.564 302.788 198.976 295.502Z" fill="#4F46E5" stroke="#263238" stroke-linecap="round" stroke-linejoin="round"/>
<path d="M178.683 272.736C178.683 272.736 179.547 288.318 193.954 281.842C193.954 281.842 187.153 271.306 178.683 272.736Z" fill="#4F46E5" stroke="#263238" stroke-linecap="round" stroke-linejoin="round"/>
<path d="M195.787 261.437C195.787 261.437 184.871 269.168 195.242 276.868C195.242 276.868 202.519 269.176 195.787 261.437Z" fill="#4F46E5" stroke="#263238" stroke-linecap="round" stroke-linejoin="round"/>
<path d="M212.943 272.919C212.943 272.919 199.702 273.65 201.655 284.743C201.655 284.743 214.775 283.273 212.943 272.919Z" fill="#4F46E5" stroke="#263238" stroke-linecap="round" stroke-linejoin="round"/>
<path d="M208.146 317.218C208.146 317.218 212.07 304.87 204.308 294.048C196.547 283.225 192.883 273.674 194.637 266.3" stroke="#263238" stroke-linecap="round" stroke-linejoin="round"/>
<path d="M209.192 276.534C209.192 276.534 201.88 280.555 200.549 288.35" stroke="#263238" stroke-linecap="round" stroke-linejoin="round"/>
<path d="M183.886 278.243C183.886 278.243 189.391 283.225 196.928 281.477" stroke="#263238" stroke-linecap="round" stroke-linejoin="round"/>
<path d="M186.833 294.993C186.833 294.993 199.918 296.439 204.697 294.612" stroke="#263238" stroke-linecap="round" stroke-linejoin="round"/>
<path d="M218.189 294.238C218.189 294.238 213.591 300.706 207.956 301.453" stroke="#263238" stroke-linecap="round" stroke-linejoin="round"/>
<path d="M345.869 274.429L344.434 274.381L344.797 270.535C344.875 270.16 344.817 269.772 344.633 269.431C344.33 269.002 343.708 268.914 343.163 268.803C341.574 268.469 340.167 267.624 339.196 266.419C338.505 265.553 338.012 264.488 337.01 263.94C335.61 263.145 333.847 263.717 332.282 264.131C330.718 264.544 328.713 264.663 327.779 263.439C327.235 262.724 327.2 261.691 326.448 261.151C325.696 260.61 324.314 260.96 323.32 261.413C319.491 263.145 315.213 265.386 314.478 269.272C314.219 270.599 309.742 276.137 308.143 276.876C305.351 278.155 300.071 275.708 297.236 274.842C291.153 274.707 285.087 274.175 279.086 273.253C277.357 273.253 275.629 274.842 273.9 276.431C273.036 277.226 273.036 278.02 272.172 278.815C269.579 281.199 265.257 282.788 264.393 286.761C264.393 292.323 257.479 295.502 252.293 297.885C244.515 301.064 236.736 301.858 228.958 305.037C224.636 306.626 219.451 306.626 214.265 306.626C208.215 311.394 203.894 316.956 199.572 323.313C198.708 324.107 197.844 325.697 196.115 325.697C140.801 325.697 84.6231 325.697 29.0413 325.419V343.551H346.232L345.869 274.429Z" fill="white"/>
<path d="M29.0327 325.419C84.6145 325.697 140.793 325.697 196.106 325.697C197.835 325.697 198.699 324.107 199.564 323.313C203.885 316.956 208.206 311.394 214.256 306.626C219.442 306.626 224.628 306.626 228.949 305.037C236.728 301.858 244.506 301.064 252.285 297.885C257.47 295.502 264.384 292.323 264.384 286.761C265.249 282.788 269.57 281.199 272.163 278.815C273.027 278.02 273.027 277.226 273.892 276.431C275.62 274.842 277.349 273.253 279.077 273.253C285.079 274.175 291.144 274.707 297.227 274.842C300.062 275.708 305.343 278.155 308.134 276.876C309.733 276.137 314.184 270.599 314.469 269.272C315.204 265.41 319.482 263.145 323.311 261.413C324.305 260.96 325.567 260.531 326.44 261.151C327.313 261.771 327.226 262.74 327.771 263.439C328.704 264.663 330.701 264.536 332.274 264.131C333.847 263.725 335.601 263.177 337.001 263.94C338.004 264.488 338.496 265.529 339.188 266.419C340.158 267.624 341.565 268.469 343.155 268.803C343.699 268.914 344.322 269.002 344.624 269.431" stroke="#263238" stroke-linecap="round" stroke-linejoin="round"/>
<path d="M299.215 290.178C302.905 290.432 308.255 288.152 308.316 288.35C308.376 288.549 314.815 289.264 314.815 289.264C314.815 289.264 323.346 291.497 324.754 290.178C326.163 288.859 330.51 289.765 333.976 289.471C337.442 289.177 340.977 291.759 340.977 291.759C340.977 291.759 347.096 296.582 347.891 296.805C348.686 297.027 354.857 298.688 357.251 300.214" stroke="#263238" stroke-linecap="round" stroke-linejoin="round"/>
<path d="M196.106 325.697H210.799C210.799 325.697 220.306 321.191 225.181 321.684C230.055 322.177 234.212 325.419 234.212 325.419H242.613L252.933 326.61H259.743" stroke="#263238" stroke-linecap="round" stroke-linejoin="round"/>
<path d="M294.358 306.022C292.309 303.948 283.744 303.511 282.552 301.533C281.359 299.554 273.848 304.083 272.82 303.384C271.791 302.685 266.381 303.94 265.499 306.3C264.618 308.66 265.05 309.089 261.584 310.273" stroke="#263238" stroke-linecap="round" stroke-linejoin="round"/>
<path d="M349.248 278.108C348.594 277.58 347.758 277.282 346.889 277.266C346.019 277.25 345.171 277.517 344.494 278.02C344.299 278.192 344.091 278.351 343.872 278.497C343.247 278.747 342.562 278.843 341.884 278.775C340.35 278.809 338.868 279.296 337.658 280.166C337.3 280.486 336.877 280.74 336.413 280.913C336.13 280.973 335.84 281.008 335.549 281.016C334.786 281.109 334.062 281.383 333.449 281.811" stroke="#263238" stroke-linecap="round" stroke-linejoin="round"/>
<path d="M303.726 326.015C307.486 327.54 312.127 326.197 314.962 323.44C317.209 321.239 319.033 317.965 322.317 317.838C323.181 317.838 324.046 318.013 324.91 318.021C326.855 318.021 328.609 317.059 330.415 316.432C332.222 315.804 334.478 315.462 335.938 316.638C336.906 317.433 337.312 318.696 338.367 319.38C339.421 320.063 340.778 319.96 342.023 320.174C343.267 320.389 344.615 321.318 344.356 322.463" stroke="#263238" stroke-linecap="round" stroke-linejoin="round"/>
</svg>
